<svg width="643" height="299" viewBox="0 0 643 299" fill="none" xmlns="http://www.w3.org/2000/svg">
<g filter="url(#filter0_d_112_2)">
<rect x="634" y="19" width="270" height="631" transform="rotate(90 634 19)" fill="#252525"/>
</g>
<path d="M216.183 210H162.644V201.656H166.729C170.379 201.656 172.986 201.251 174.551 200.439C176.173 199.57 177.158 198.382 177.506 196.876C177.911 195.312 178.114 192.849 178.114 189.488V121.869C178.114 118.451 177.796 115.93 177.158 114.308C176.579 112.685 175.304 111.555 173.334 110.918C171.422 110.281 168.322 109.962 164.034 109.962H160.992V101.966C170.842 100.633 177.767 99.3874 181.765 98.2285C185.763 97.0697 189.413 95.3314 192.716 93.0137H200.886V190.792C200.886 194.848 201.581 197.687 202.972 199.31C204.362 200.874 207.115 201.656 211.229 201.656H216.183V210ZM311.618 194.877L307.707 216.605H300.406C300.696 215.331 300.84 214.317 300.84 213.563C300.84 211.188 299.392 210 296.495 210H239.131V201.83C246.78 194.703 254.283 186.736 261.642 177.929C269.059 169.063 275.23 159.909 280.155 150.464C285.08 140.961 287.543 131.98 287.543 123.521C287.543 118.653 286.644 114.568 284.848 111.266C283.11 107.905 280.821 105.442 277.982 103.878C275.201 102.256 272.217 101.444 269.03 101.444C266.017 101.444 263.265 102.169 260.773 103.617C258.281 105.008 256.34 106.891 254.95 109.267C253.559 111.642 252.864 114.134 252.864 116.741C252.864 119.812 254.052 123.781 256.427 128.648C256.601 128.996 256.688 129.286 256.688 129.518C256.688 129.981 255.471 130.705 253.038 131.69L247.388 134.037C245.476 134.848 244.346 135.254 243.999 135.254C243.072 135.254 242 133.689 240.783 130.561C239.566 127.432 238.958 124.013 238.958 120.305C238.958 115.148 240.261 110.512 242.869 106.398C245.534 102.285 249.532 99.0397 254.863 96.6641C260.252 94.2305 266.77 93.0137 274.419 93.0137C283.805 93.0137 291.193 94.8389 296.582 98.4893C302.028 102.082 305.679 106.196 307.533 110.831C309.445 115.409 310.401 119.696 310.401 123.694C310.401 131.806 307.765 139.715 302.492 147.422C297.219 155.07 290.005 163.472 280.85 172.627C280.387 173.09 278.532 174.829 275.288 177.842C272.101 180.855 268.45 184.273 264.336 188.098C260.223 191.864 257.76 194.124 256.949 194.877H311.618ZM398.622 170.802C398.622 176.596 397.405 182.014 394.972 187.055C392.596 192.096 389.207 196.557 384.803 200.439C380.457 204.322 375.445 207.335 369.767 209.479C364.088 211.622 358.062 212.694 351.689 212.694C345.952 212.694 340.853 211.941 336.392 210.435C331.93 208.928 328.425 206.813 325.875 204.09C323.384 201.309 322.138 198.238 322.138 194.877C322.138 191.864 323.036 189.517 324.832 187.837C326.628 186.099 328.685 185.229 331.003 185.229C333.842 185.229 336.015 186.128 337.522 187.924C339.086 189.662 340.708 192.327 342.389 195.92C343.895 198.933 345.431 201.077 346.995 202.352C348.56 203.626 350.704 204.264 353.427 204.264C362.756 204.264 368.753 201.106 371.418 194.79C374.141 188.416 375.503 181.927 375.503 175.321C375.503 166.978 374.721 160.778 373.156 156.722C371.65 152.608 368.811 150.551 364.639 150.551C361.915 150.551 358.96 151.854 355.774 154.462C352.471 157.301 350.095 158.721 348.647 158.721C347.546 158.721 346.561 158.344 345.692 157.591C344.822 156.838 344.388 155.795 344.388 154.462C344.388 153.129 344.822 151.941 345.692 150.898C346.561 149.855 347.835 148.784 349.516 147.683C356.585 142.931 361.684 139.252 364.813 136.645C367.999 134.037 370.433 131.198 372.113 128.127C373.794 125.056 374.634 121.377 374.634 117.089C374.634 111.99 373.012 108.108 369.767 105.442C366.58 102.777 362.727 101.444 358.207 101.444C355.542 101.444 352.934 102.053 350.385 103.27C347.893 104.428 345.894 106.022 344.388 108.05C342.939 110.078 342.215 112.193 342.215 114.395C342.215 117.35 343.229 120.073 345.257 122.564C346.184 123.781 346.648 124.506 346.648 124.737C346.648 125.143 346.358 125.52 345.778 125.867C345.199 126.215 344.62 126.562 344.04 126.91L336.739 130.039C335.349 130.792 334.219 131.169 333.35 131.169C331.959 131.169 330.54 129.836 329.091 127.171C327.642 124.506 326.918 121.724 326.918 118.827C326.918 115.756 327.99 112.251 330.134 108.311C332.278 104.312 336.131 100.778 341.693 97.707C347.256 94.5781 354.846 93.0137 364.465 93.0137C370.433 93.0137 375.735 93.7669 380.37 95.2734C385.006 96.722 388.656 99.0107 391.321 102.14C394.045 105.211 395.406 109.006 395.406 113.525C395.406 116.944 394.624 120.16 393.06 123.173C391.495 126.186 389.583 128.793 387.323 130.995C385.064 133.197 382.891 135.051 380.805 136.558C378.719 138.006 376.111 139.715 372.983 141.686C381.326 142.033 387.555 144.872 391.669 150.203C393.755 152.753 395.435 155.534 396.71 158.547C397.985 161.56 398.622 165.645 398.622 170.802ZM485.54 210H431.914V201.656H434.956C439.244 201.656 442.343 201.309 444.256 200.613C446.168 199.918 447.355 198.817 447.819 197.311C448.283 195.746 448.514 193.139 448.514 189.488V172.279H406.796V161.067L457.901 93.0137H469.634V162.284H485.54V172.279H469.634V189.488C469.634 193.255 469.924 195.978 470.504 197.658C471.083 199.281 472.242 200.353 473.98 200.874C475.776 201.396 478.674 201.656 482.672 201.656H485.54V210ZM448.514 162.284V118.827L416.095 162.284H448.514Z" fill="#F6F6F6"/>
<path d="M206.593 259.692V250.112H207.691C208.937 256.353 211.888 259.473 216.546 259.473C218.641 259.473 220.26 258.879 221.402 257.693C222.56 256.492 223.138 255.151 223.138 253.672C223.138 252.178 222.633 250.925 221.622 249.915C220.611 248.918 218.766 247.849 216.085 246.707C213.697 245.681 211.896 244.788 210.68 244.026C209.464 243.25 208.512 242.246 207.823 241.016C207.149 239.785 206.812 238.474 206.812 237.083C206.812 234.958 207.545 233.193 209.01 231.787C210.489 230.366 212.357 229.656 214.613 229.656C215.873 229.656 217.059 229.861 218.172 230.271C219.286 230.681 220.428 231.531 221.6 232.82C222.274 232.014 222.655 231.143 222.743 230.205H223.709V238.005H222.743C222.186 235.735 221.197 233.948 219.776 232.644C218.37 231.34 216.737 230.688 214.876 230.688C213.104 230.688 211.8 231.172 210.965 232.139C210.145 233.091 209.735 234.138 209.735 235.281C209.735 236.658 210.255 237.822 211.295 238.774C212.32 239.741 214.173 240.825 216.854 242.026C219.417 243.169 221.278 244.092 222.435 244.795C223.607 245.483 224.544 246.443 225.248 247.673C225.951 248.904 226.302 250.325 226.302 251.936C226.302 254.485 225.453 256.558 223.753 258.154C222.054 259.751 219.784 260.549 216.942 260.549C213.675 260.549 210.951 259.297 208.768 256.792C208.285 257.48 207.926 258.447 207.691 259.692H206.593ZM240.738 243.015H235.311V253.892C235.311 255.562 235.384 256.689 235.531 257.275C235.677 257.847 235.985 258.308 236.454 258.66C236.937 259.011 237.45 259.187 237.992 259.187C239.046 259.187 239.962 258.586 240.738 257.385L241.441 257.803C240.987 258.77 240.313 259.502 239.42 260C238.541 260.483 237.647 260.725 236.739 260.725C235.685 260.725 234.754 260.417 233.949 259.802C233.158 259.172 232.66 258.44 232.455 257.605C232.264 256.77 232.169 255.305 232.169 253.21V243.015H229.554V242.004C230.755 241.975 231.832 241.47 232.784 240.488C233.736 239.507 234.344 238.13 234.608 236.357H235.311V242.004H240.738V243.015ZM249.022 245.872C249.52 244.568 250.326 243.477 251.439 242.598C252.567 241.719 253.666 241.279 254.735 241.279C255.702 241.279 256.463 241.58 257.02 242.18C257.577 242.781 257.855 243.396 257.855 244.026C257.855 244.451 257.708 244.817 257.416 245.125C257.137 245.432 256.793 245.586 256.383 245.586C255.65 245.586 255.094 245.044 254.713 243.96C254.449 243.228 254.054 242.861 253.526 242.861C252.896 242.861 252.142 243.293 251.263 244.158C250.384 245.007 249.82 245.894 249.571 246.816C249.322 247.739 249.198 249.006 249.198 250.618V253.826C249.198 255.745 249.22 256.953 249.264 257.451C249.322 257.949 249.535 258.33 249.901 258.594C250.267 258.857 250.919 258.989 251.856 258.989H252.472V260H242.914V258.989H243.375C244.254 258.989 244.876 258.872 245.243 258.638C245.624 258.389 245.851 258.044 245.924 257.605C245.997 257.166 246.034 255.906 246.034 253.826V248.75C246.034 246.816 246.004 245.608 245.946 245.125C245.902 244.626 245.697 244.246 245.331 243.982C244.964 243.704 244.312 243.564 243.375 243.564H242.914V242.576C244.291 242.415 246.092 241.982 248.319 241.279C248.744 242.437 248.978 243.967 249.022 245.872ZM275.499 248.091H262.953C262.894 248.955 262.865 249.6 262.865 250.024C262.865 253.188 263.355 255.569 264.337 257.166C265.333 258.748 266.812 259.539 268.775 259.539C271.441 259.539 273.331 258.345 274.444 255.957H275.499C275.03 257.451 274.1 258.623 272.708 259.473C271.317 260.308 269.801 260.725 268.16 260.725C266.637 260.725 265.194 260.344 263.832 259.583C262.484 258.806 261.378 257.715 260.514 256.309C259.649 254.902 259.217 253.196 259.217 251.189C259.217 248.347 260.052 245.989 261.722 244.114C263.392 242.224 265.479 241.279 267.984 241.279C270.343 241.279 272.167 241.997 273.456 243.433C274.745 244.868 275.426 246.421 275.499 248.091ZM271.654 247.212C271.698 246.875 271.72 246.575 271.72 246.311C271.72 245.022 271.339 244.026 270.577 243.323C269.83 242.605 268.907 242.246 267.809 242.246C265.143 242.246 263.553 243.901 263.041 247.212H271.654ZM295.187 248.091H282.64C282.582 248.955 282.552 249.6 282.552 250.024C282.552 253.188 283.043 255.569 284.024 257.166C285.021 258.748 286.5 259.539 288.463 259.539C291.129 259.539 293.019 258.345 294.132 255.957H295.187C294.718 257.451 293.788 258.623 292.396 259.473C291.004 260.308 289.488 260.725 287.848 260.725C286.324 260.725 284.881 260.344 283.519 259.583C282.171 258.806 281.065 257.715 280.201 256.309C279.337 254.902 278.905 253.196 278.905 251.189C278.905 248.347 279.74 245.989 281.41 244.114C283.08 242.224 285.167 241.279 287.672 241.279C290.03 241.279 291.854 241.997 293.143 243.433C294.432 244.868 295.113 246.421 295.187 248.091ZM291.341 247.212C291.385 246.875 291.407 246.575 291.407 246.311C291.407 245.022 291.026 244.026 290.265 243.323C289.518 242.605 288.595 242.246 287.496 242.246C284.83 242.246 283.241 243.901 282.728 247.212H291.341ZM309.249 243.015H303.822V253.892C303.822 255.562 303.895 256.689 304.042 257.275C304.188 257.847 304.496 258.308 304.964 258.66C305.448 259.011 305.96 259.187 306.502 259.187C307.557 259.187 308.473 258.586 309.249 257.385L309.952 257.803C309.498 258.77 308.824 259.502 307.931 260C307.052 260.483 306.158 260.725 305.25 260.725C304.195 260.725 303.265 260.417 302.459 259.802C301.668 259.172 301.17 258.44 300.965 257.605C300.775 256.77 300.68 255.305 300.68 253.21V243.015H298.065V242.004C299.266 241.975 300.343 241.47 301.295 240.488C302.247 239.507 302.855 238.13 303.119 236.357H303.822V242.004H309.249V243.015ZM348.998 260.681L327.926 232.754V253.43C327.926 255.144 328.006 256.272 328.167 256.814C328.343 257.356 328.827 257.854 329.618 258.308C330.409 258.762 331.595 258.989 333.177 258.989V260H322.059V258.989C323.48 258.887 324.564 258.63 325.311 258.22C326.058 257.795 326.498 257.341 326.629 256.858C326.776 256.375 326.849 255.232 326.849 253.43V237.632C326.849 235.347 326.739 233.816 326.52 233.04C326.314 232.263 325.978 231.765 325.509 231.545C325.055 231.326 324.029 231.216 322.433 231.216V230.205H331.222L348.866 253.518V235.698C348.866 234.38 348.727 233.457 348.448 232.93C348.185 232.402 347.635 231.985 346.8 231.677C345.965 231.37 344.962 231.216 343.79 231.216V230.205H354.601V231.216C353.341 231.318 352.345 231.56 351.612 231.941C350.895 232.322 350.433 232.783 350.228 233.325C350.038 233.853 349.942 234.753 349.942 236.028V260.681H348.998ZM374.859 256.704H375.672C375.541 259.209 374.31 260.461 371.981 260.461C370.985 260.461 370.194 260.198 369.608 259.67C369.037 259.143 368.663 258.359 368.487 257.319C367.022 258.359 365.682 259.143 364.466 259.67C363.265 260.198 362.188 260.461 361.236 260.461C360.021 260.461 358.973 260.11 358.094 259.407C357.215 258.704 356.776 257.773 356.776 256.616C356.776 255.107 357.508 253.789 358.973 252.661C360.453 251.533 362.489 250.435 365.082 249.365L368.487 247.981V247.102C368.487 245.857 368.407 244.956 368.246 244.399C368.084 243.843 367.667 243.345 366.993 242.905C366.319 242.466 365.433 242.246 364.334 242.246C362.137 242.246 360.914 242.979 360.665 244.443C360.431 245.938 359.815 246.685 358.819 246.685C357.926 246.685 357.479 246.26 357.479 245.41C357.479 244.575 358.072 243.682 359.259 242.729C360.445 241.763 362.291 241.279 364.796 241.279C366.656 241.279 368.099 241.572 369.125 242.158C370.15 242.744 370.824 243.411 371.146 244.158C371.483 244.905 371.651 246.047 371.651 247.585V254.858C371.651 256.558 371.739 257.649 371.915 258.132C372.091 258.616 372.472 258.857 373.058 258.857C374.024 258.857 374.625 258.14 374.859 256.704ZM368.487 249.014L366.092 249.98C362.313 251.519 360.423 253.452 360.423 255.781C360.423 256.704 360.665 257.451 361.148 258.022C361.632 258.579 362.262 258.857 363.038 258.857C363.727 258.857 364.525 258.63 365.433 258.176C366.341 257.722 367.359 257.041 368.487 256.133V249.014ZM382.44 241.279H382.66C383.084 242.261 383.297 243.521 383.297 245.059C384.278 243.799 385.333 242.854 386.461 242.224C387.604 241.594 388.827 241.279 390.13 241.279C391.61 241.279 392.811 241.616 393.734 242.29C394.657 242.964 395.301 243.975 395.667 245.322C396.781 243.975 397.923 242.964 399.095 242.29C400.267 241.616 401.461 241.279 402.677 241.279C404.068 241.279 405.248 241.602 406.214 242.246C407.181 242.891 407.767 243.623 407.972 244.443C408.177 245.264 408.28 246.589 408.28 248.42V253.826C408.28 255.92 408.316 257.195 408.39 257.649C408.478 258.103 408.712 258.44 409.093 258.66C409.488 258.879 410.213 258.989 411.268 258.989V260H402.281V258.989C403.233 258.989 403.9 258.887 404.281 258.682C404.676 258.462 404.918 258.14 405.006 257.715C405.094 257.275 405.138 255.979 405.138 253.826V247.827C405.138 246.611 405.064 245.696 404.918 245.081C404.786 244.465 404.427 243.938 403.841 243.499C403.255 243.059 402.494 242.839 401.556 242.839C400.604 242.839 399.645 243.162 398.678 243.806C397.726 244.451 396.766 245.425 395.799 246.729V253.826C395.799 255.745 395.821 256.953 395.865 257.451C395.924 257.935 396.129 258.315 396.48 258.594C396.847 258.857 397.491 258.989 398.414 258.989V260H389.713V258.989C390.694 258.989 391.375 258.887 391.756 258.682C392.152 258.477 392.394 258.162 392.481 257.737C392.584 257.312 392.635 256.008 392.635 253.826V248.838C392.635 247.256 392.569 246.113 392.438 245.41C392.32 244.692 391.947 244.084 391.317 243.586C390.687 243.074 389.903 242.817 388.966 242.817C388.058 242.817 387.127 243.11 386.175 243.696C385.238 244.282 384.278 245.161 383.297 246.333V253.826C383.297 255.803 383.326 257.034 383.385 257.517C383.443 258 383.663 258.367 384.044 258.616C384.425 258.865 385.106 258.989 386.087 258.989V260H377.276V258.989C378.243 258.989 378.917 258.887 379.298 258.682C379.693 258.462 379.935 258.14 380.023 257.715C380.111 257.29 380.155 255.994 380.155 253.826V248.442C380.155 246.392 380.118 245.139 380.045 244.685C379.986 244.216 379.759 243.865 379.364 243.63C378.983 243.396 378.287 243.279 377.276 243.279V242.268C379.356 242.063 381.078 241.733 382.44 241.279ZM430.23 248.091H417.684C417.625 248.955 417.596 249.6 417.596 250.024C417.596 253.188 418.087 255.569 419.068 257.166C420.064 258.748 421.544 259.539 423.507 259.539C426.173 259.539 428.062 258.345 429.176 255.957H430.23C429.762 257.451 428.832 258.623 427.44 259.473C426.048 260.308 424.532 260.725 422.892 260.725C421.368 260.725 419.925 260.344 418.563 259.583C417.215 258.806 416.109 257.715 415.245 256.309C414.381 254.902 413.949 253.196 413.949 251.189C413.949 248.347 414.784 245.989 416.454 244.114C418.124 242.224 420.211 241.279 422.716 241.279C425.074 241.279 426.898 241.997 428.187 243.433C429.476 244.868 430.157 246.421 430.23 248.091ZM426.385 247.212C426.429 246.875 426.451 246.575 426.451 246.311C426.451 245.022 426.07 244.026 425.309 243.323C424.562 242.605 423.639 242.246 422.54 242.246C419.874 242.246 418.285 243.901 417.772 247.212H426.385Z" fill="#F6F6F6"/>
<path d="M220.412 42.2051L220.653 49.6318H219.621C219.416 48.0059 218.954 46.6655 218.236 45.6108C217.533 44.5415 216.793 43.875 216.017 43.6113C215.241 43.3477 213.93 43.2158 212.084 43.2158H206.261V55.8501H209.052C210.854 55.8501 212.047 55.5498 212.633 54.9492C213.234 54.334 213.534 53.1108 213.534 51.2798H214.633V61.7827H213.534C213.534 60.5083 213.402 59.5049 213.139 58.7725C212.89 58.0254 212.509 57.52 211.996 57.2563C211.498 56.978 210.517 56.8389 209.052 56.8389H206.261V64.2437C206.261 66.5874 206.32 68.1255 206.437 68.8579C206.554 69.5757 206.847 70.1104 207.316 70.4619C207.799 70.8135 208.722 70.9893 210.084 70.9893H211.095V72H197.252V70.9893H198.175C199.45 70.9893 200.329 70.8281 200.812 70.5059C201.31 70.1836 201.625 69.6855 201.757 69.0117C201.903 68.3232 201.977 66.7339 201.977 64.2437V49.6318C201.977 47.2588 201.903 45.728 201.757 45.0396C201.625 44.3511 201.332 43.875 200.878 43.6113C200.438 43.3477 199.464 43.2158 197.956 43.2158H197.428V42.2051H220.412ZM238.144 68.7041H238.957C238.825 71.209 237.594 72.4614 235.265 72.4614C234.269 72.4614 233.478 72.1978 232.892 71.6704C232.321 71.1431 231.947 70.3594 231.771 69.3193C230.307 70.3594 228.966 71.1431 227.75 71.6704C226.549 72.1978 225.473 72.4614 224.521 72.4614C223.305 72.4614 222.257 72.1099 221.378 71.4067C220.5 70.7036 220.06 69.7734 220.06 68.6162C220.06 67.1074 220.792 65.7891 222.257 64.6611C223.737 63.5332 225.773 62.4346 228.366 61.3652L231.771 59.981V59.1021C231.771 57.8569 231.691 56.9561 231.53 56.3994C231.369 55.8428 230.951 55.3447 230.277 54.9053C229.604 54.4658 228.717 54.2461 227.619 54.2461C225.421 54.2461 224.198 54.9785 223.949 56.4434C223.715 57.9375 223.1 58.6846 222.104 58.6846C221.21 58.6846 220.763 58.2598 220.763 57.4102C220.763 56.5752 221.356 55.6816 222.543 54.7295C223.729 53.7627 225.575 53.2793 228.08 53.2793C229.94 53.2793 231.383 53.5723 232.409 54.1582C233.434 54.7441 234.108 55.4106 234.43 56.1577C234.767 56.9048 234.936 58.0474 234.936 59.5854V66.8584C234.936 68.5576 235.023 69.6489 235.199 70.1323C235.375 70.6157 235.756 70.8574 236.342 70.8574C237.309 70.8574 237.909 70.1396 238.144 68.7041ZM231.771 61.0137L229.376 61.9805C225.597 63.5186 223.708 65.4521 223.708 67.7812C223.708 68.7041 223.949 69.4512 224.433 70.0225C224.916 70.5791 225.546 70.8574 226.322 70.8574C227.011 70.8574 227.809 70.6304 228.717 70.1763C229.625 69.7222 230.644 69.041 231.771 68.1328V61.0137ZM245.724 53.2793H245.944C246.369 54.2607 246.581 55.5205 246.581 57.0586C247.562 55.7988 248.617 54.854 249.745 54.2241C250.888 53.5942 252.111 53.2793 253.415 53.2793C254.894 53.2793 256.095 53.6162 257.018 54.29C257.941 54.9639 258.585 55.9746 258.952 57.3223C260.065 55.9746 261.208 54.9639 262.379 54.29C263.551 53.6162 264.745 53.2793 265.961 53.2793C267.353 53.2793 268.532 53.6016 269.499 54.2461C270.465 54.8906 271.051 55.623 271.256 56.4434C271.461 57.2637 271.564 58.5894 271.564 60.4204V65.8257C271.564 67.9204 271.601 69.1948 271.674 69.6489C271.762 70.103 271.996 70.4399 272.377 70.6597C272.772 70.8794 273.498 70.9893 274.552 70.9893V72H265.565V70.9893C266.518 70.9893 267.184 70.8867 267.565 70.6816C267.96 70.4619 268.202 70.1396 268.29 69.7148C268.378 69.2754 268.422 67.979 268.422 65.8257V59.8271C268.422 58.6113 268.349 57.6958 268.202 57.0806C268.07 56.4653 267.711 55.938 267.125 55.4985C266.54 55.0591 265.778 54.8394 264.84 54.8394C263.888 54.8394 262.929 55.1616 261.962 55.8062C261.01 56.4507 260.05 57.4248 259.083 58.7285V65.8257C259.083 67.7446 259.105 68.9531 259.149 69.4512C259.208 69.9346 259.413 70.3154 259.765 70.5938C260.131 70.8574 260.775 70.9893 261.698 70.9893V72H252.997V70.9893C253.979 70.9893 254.66 70.8867 255.041 70.6816C255.436 70.4766 255.678 70.1616 255.766 69.7368C255.868 69.312 255.919 68.0083 255.919 65.8257V60.8379C255.919 59.2559 255.854 58.1133 255.722 57.4102C255.604 56.6924 255.231 56.0845 254.601 55.5864C253.971 55.0737 253.188 54.8174 252.25 54.8174C251.342 54.8174 250.412 55.1104 249.459 55.6963C248.522 56.2822 247.562 57.1611 246.581 58.333V65.8257C246.581 67.8032 246.61 69.0337 246.669 69.5171C246.728 70.0005 246.947 70.3667 247.328 70.6157C247.709 70.8647 248.39 70.9893 249.372 70.9893V72H240.561V70.9893C241.527 70.9893 242.201 70.8867 242.582 70.6816C242.978 70.4619 243.219 70.1396 243.307 69.7148C243.395 69.29 243.439 67.9937 243.439 65.8257V60.4424C243.439 58.3916 243.402 57.1392 243.329 56.6851C243.271 56.2163 243.043 55.8647 242.648 55.6304C242.267 55.396 241.571 55.2788 240.561 55.2788V54.2681C242.641 54.063 244.362 53.7334 245.724 53.2793ZM278.551 44.0947C278.551 43.4648 278.771 42.9229 279.21 42.4688C279.665 42.0146 280.207 41.7876 280.836 41.7876C281.466 41.7876 282.001 42.0146 282.44 42.4688C282.88 42.9229 283.1 43.4648 283.1 44.0947C283.1 44.7393 282.88 45.2886 282.44 45.7427C282.001 46.1968 281.466 46.4238 280.836 46.4238C280.207 46.4238 279.665 46.1968 279.21 45.7427C278.771 45.2886 278.551 44.7393 278.551 44.0947ZM282.792 53.2793V65.8257C282.792 67.7446 282.821 68.9531 282.88 69.4512C282.938 69.9492 283.151 70.3301 283.517 70.5938C283.883 70.8574 284.535 70.9893 285.473 70.9893H285.934V72H276.244V70.9893H276.991C278.031 70.9893 278.705 70.8428 279.013 70.5498C279.335 70.2422 279.518 69.8833 279.562 69.4731C279.621 69.0483 279.65 67.8325 279.65 65.8257V60.3765C279.65 58.2671 279.547 56.978 279.342 56.5093C279.152 56.0405 278.888 55.7476 278.551 55.6304C278.229 55.5132 277.658 55.4546 276.837 55.4546H276.244V54.4438C278.852 54.1802 280.873 53.792 282.309 53.2793H282.792ZM293.69 41.7876V65.8257C293.69 67.7446 293.712 68.9531 293.756 69.4512C293.815 69.9492 294.027 70.3301 294.394 70.5938C294.76 70.8574 295.412 70.9893 296.349 70.9893H296.876V72H287.252V70.9893H287.868C288.747 70.9893 289.369 70.8721 289.735 70.6377C290.116 70.3887 290.343 70.0444 290.417 69.605C290.49 69.1655 290.526 67.9058 290.526 65.8257V48.0278C290.526 46.1382 290.358 44.9517 290.021 44.4683C289.684 43.9702 288.864 43.7212 287.56 43.7212V42.7104C288.454 42.7104 289.501 42.6079 290.702 42.4028C291.918 42.1978 292.753 41.9927 293.207 41.7876H293.69ZM309.269 68.5942L313.444 58.5967C314.044 57.1318 314.345 56.3188 314.345 56.1577C314.345 55.4253 313.532 55.0444 311.906 55.0151V54.0044H318.234V55.0151C317.252 55.0591 316.535 55.3228 316.081 55.8062C315.626 56.2749 315.062 57.3223 314.389 58.9482L306.369 78.3062C305.607 80.1519 304.933 81.4043 304.347 82.0635C303.761 82.7373 303.117 83.0742 302.414 83.0742C301.461 83.0742 300.985 82.6421 300.985 81.7778C300.985 80.7817 301.747 79.9395 303.271 79.251C304.164 78.8555 304.757 78.5186 305.05 78.2402C305.358 77.9619 305.658 77.4565 305.951 76.7241L307.665 72.4395L300.897 57.9375C300.297 56.6631 299.799 55.8574 299.403 55.5205C299.008 55.1836 298.334 55.0151 297.382 55.0151V54.0044H305.644V55.0151C304.193 55.0591 303.468 55.3594 303.468 55.916C303.468 56.1357 303.754 56.8535 304.325 58.0693L309.269 68.5942ZM357.213 72.6812L336.142 44.7539V65.4302C336.142 67.144 336.222 68.272 336.383 68.814C336.559 69.356 337.042 69.854 337.833 70.3081C338.625 70.7622 339.811 70.9893 341.393 70.9893V72H330.275V70.9893C331.696 70.8867 332.78 70.6304 333.527 70.2202C334.274 69.7954 334.713 69.3413 334.845 68.8579C334.992 68.3745 335.065 67.2319 335.065 65.4302V49.6318C335.065 47.3467 334.955 45.8159 334.735 45.0396C334.53 44.2632 334.193 43.7651 333.725 43.5454C333.271 43.3257 332.245 43.2158 330.648 43.2158V42.2051H339.438L357.082 65.5181V47.6982C357.082 46.3799 356.942 45.457 356.664 44.9297C356.4 44.4023 355.851 43.9849 355.016 43.6772C354.181 43.3696 353.178 43.2158 352.006 43.2158V42.2051H362.816V43.2158C361.557 43.3184 360.561 43.5601 359.828 43.9409C359.11 44.3218 358.649 44.7832 358.444 45.3252C358.253 45.8525 358.158 46.7534 358.158 48.0278V72.6812H357.213ZM383.075 68.7041H383.888C383.756 71.209 382.526 72.4614 380.197 72.4614C379.201 72.4614 378.41 72.1978 377.824 71.6704C377.252 71.1431 376.879 70.3594 376.703 69.3193C375.238 70.3594 373.898 71.1431 372.682 71.6704C371.481 72.1978 370.404 72.4614 369.452 72.4614C368.236 72.4614 367.189 72.1099 366.31 71.4067C365.431 70.7036 364.992 69.7734 364.992 68.6162C364.992 67.1074 365.724 65.7891 367.189 64.6611C368.668 63.5332 370.705 62.4346 373.297 61.3652L376.703 59.981V59.1021C376.703 57.8569 376.623 56.9561 376.461 56.3994C376.3 55.8428 375.883 55.3447 375.209 54.9053C374.535 54.4658 373.649 54.2461 372.55 54.2461C370.353 54.2461 369.13 54.9785 368.881 56.4434C368.646 57.9375 368.031 58.6846 367.035 58.6846C366.142 58.6846 365.695 58.2598 365.695 57.4102C365.695 56.5752 366.288 55.6816 367.475 54.7295C368.661 53.7627 370.507 53.2793 373.012 53.2793C374.872 53.2793 376.315 53.5723 377.34 54.1582C378.366 54.7441 379.04 55.4106 379.362 56.1577C379.699 56.9048 379.867 58.0474 379.867 59.5854V66.8584C379.867 68.5576 379.955 69.6489 380.131 70.1323C380.307 70.6157 380.688 70.8574 381.273 70.8574C382.24 70.8574 382.841 70.1396 383.075 68.7041ZM376.703 61.0137L374.308 61.9805C370.529 63.5186 368.639 65.4521 368.639 67.7812C368.639 68.7041 368.881 69.4512 369.364 70.0225C369.848 70.5791 370.478 70.8574 371.254 70.8574C371.942 70.8574 372.741 70.6304 373.649 70.1763C374.557 69.7222 375.575 69.041 376.703 68.1328V61.0137ZM390.656 53.2793H390.875C391.3 54.2607 391.513 55.5205 391.513 57.0586C392.494 55.7988 393.549 54.854 394.677 54.2241C395.819 53.5942 397.042 53.2793 398.346 53.2793C399.826 53.2793 401.027 53.6162 401.95 54.29C402.873 54.9639 403.517 55.9746 403.883 57.3223C404.997 55.9746 406.139 54.9639 407.311 54.29C408.483 53.6162 409.677 53.2793 410.893 53.2793C412.284 53.2793 413.463 53.6016 414.43 54.2461C415.397 54.8906 415.983 55.623 416.188 56.4434C416.393 57.2637 416.496 58.5894 416.496 60.4204V65.8257C416.496 67.9204 416.532 69.1948 416.605 69.6489C416.693 70.103 416.928 70.4399 417.309 70.6597C417.704 70.8794 418.429 70.9893 419.484 70.9893V72H410.497V70.9893C411.449 70.9893 412.116 70.8867 412.497 70.6816C412.892 70.4619 413.134 70.1396 413.222 69.7148C413.31 69.2754 413.354 67.979 413.354 65.8257V59.8271C413.354 58.6113 413.28 57.6958 413.134 57.0806C413.002 56.4653 412.643 55.938 412.057 55.4985C411.471 55.0591 410.709 54.8394 409.772 54.8394C408.82 54.8394 407.86 55.1616 406.894 55.8062C405.941 56.4507 404.982 57.4248 404.015 58.7285V65.8257C404.015 67.7446 404.037 68.9531 404.081 69.4512C404.14 69.9346 404.345 70.3154 404.696 70.5938C405.062 70.8574 405.707 70.9893 406.63 70.9893V72H397.929V70.9893C398.91 70.9893 399.591 70.8867 399.972 70.6816C400.368 70.4766 400.609 70.1616 400.697 69.7368C400.8 69.312 400.851 68.0083 400.851 65.8257V60.8379C400.851 59.2559 400.785 58.1133 400.653 57.4102C400.536 56.6924 400.163 56.0845 399.533 55.5864C398.903 55.0737 398.119 54.8174 397.182 54.8174C396.273 54.8174 395.343 55.1104 394.391 55.6963C393.454 56.2822 392.494 57.1611 391.513 58.333V65.8257C391.513 67.8032 391.542 69.0337 391.601 69.5171C391.659 70.0005 391.879 70.3667 392.26 70.6157C392.641 70.8647 393.322 70.9893 394.303 70.9893V72H385.492V70.9893C386.459 70.9893 387.133 70.8867 387.514 70.6816C387.909 70.4619 388.151 70.1396 388.239 69.7148C388.327 69.29 388.371 67.9937 388.371 65.8257V60.4424C388.371 58.3916 388.334 57.1392 388.261 56.6851C388.202 56.2163 387.975 55.8647 387.58 55.6304C387.199 55.396 386.503 55.2788 385.492 55.2788V54.2681C387.572 54.063 389.293 53.7334 390.656 53.2793ZM438.446 60.0908H425.9C425.841 60.9551 425.812 61.5996 425.812 62.0244C425.812 65.1885 426.303 67.5688 427.284 69.1655C428.28 70.7476 429.76 71.5386 431.723 71.5386C434.389 71.5386 436.278 70.3447 437.392 67.957H438.446C437.978 69.4512 437.047 70.623 435.656 71.4727C434.264 72.3076 432.748 72.7251 431.107 72.7251C429.584 72.7251 428.141 72.3442 426.779 71.5825C425.431 70.8062 424.325 69.7148 423.461 68.3086C422.597 66.9023 422.165 65.1958 422.165 63.189C422.165 60.3472 423 57.9888 424.669 56.1138C426.339 54.2241 428.427 53.2793 430.932 53.2793C433.29 53.2793 435.114 53.9971 436.403 55.4326C437.692 56.8682 438.373 58.4209 438.446 60.0908ZM434.601 59.2119C434.645 58.875 434.667 58.5747 434.667 58.311C434.667 57.022 434.286 56.0259 433.524 55.3228C432.777 54.605 431.854 54.2461 430.756 54.2461C428.09 54.2461 426.5 55.9014 425.988 59.2119H434.601Z" fill="#F6F6F6"/>
<rect x="13" y="29" width="610" height="248" stroke="#F6F6F6" stroke-width="2"/>
<defs>
<filter id="filter0_d_112_2" x="0" y="17" width="643" height="282" filterUnits="userSpaceOnUse" color-interpolation-filters="sRGB">
<feFlood flood-opacity="0" result="BackgroundImageFix"/>
<feColorMatrix in="SourceAlpha" type="matrix" values="0 0 0 0 0 0 0 0 0 0 0 0 0 0 0 0 0 0 127 0" result="hardAlpha"/>
<feOffset dx="3" dy="4"/>
<feGaussianBlur stdDeviation="3"/>
<feComposite in2="hardAlpha" operator="out"/>
<feColorMatrix type="matrix" values="0 0 0 0 0.716325 0 0 0 0 0.716325 0 0 0 0 0.716325 0 0 0 0.13 0"/>
<feBlend mode="normal" in2="BackgroundImageFix" result="effect1_dropShadow_112_2"/>
<feBlend mode="normal" in="SourceGraphic" in2="effect1_dropShadow_112_2" result="shape"/>
</filter>
</defs>
</svg>
